<?xml version="1.0" encoding="iso-8859-1"?>
<!-- Generator: Adobe Illustrator 14.0.0, SVG Export Plug-In . SVG Version: 6.00 Build 43363)  -->
<!DOCTYPE svg PUBLIC "-//W3C//DTD SVG 1.1//EN" "http://www.w3.org/Graphics/SVG/1.1/DTD/svg11.dtd">
<svg version="1.1" id="Layer_2" xmlns="http://www.w3.org/2000/svg" xmlns:xlink="http://www.w3.org/1999/xlink" x="0px" y="0px"
	 width="100%" height="100%" viewBox="0 0 576 576" style="enable-background:new 0 0 576 576;" xml:space="preserve">
<path style="fill:#231F20;" d="M285.194,241.95c0,0-12.236-19.885-63.805-19.885c-51.568,0-115.973,67.843-150.247,66.685
	c-34.913-1.181-24.084-68.157,18.414-48.334c-15.424-19.54-39.864-11.255-51.402,0c-9.468,9.234-22.958,34.176-11.509,61.376
	c11.449,27.2,37.632,50.841,95.375,52.38c57.742,1.538,137.751-24.9,165.476-52.38l2.004-0.154
	c27.723,27.479,107.732,53.918,165.477,52.38c57.742-1.539,83.926-25.18,95.375-52.38c11.448-27.2-2.041-52.142-11.51-61.376
	c-11.539-11.255-35.979-19.54-51.402,0c42.499-19.823,53.328,47.152,18.413,48.333c-34.272,1.159-98.677-66.684-150.245-66.684
	c-51.569,0-63.807,19.885-63.807,19.885S288.526,245.989,285.194,241.95z"/>
</svg>
