<?xml version="1.0" standalone="no"?>
<!DOCTYPE svg PUBLIC "-//W3C//DTD SVG 20010904//EN"
 "http://www.w3.org/TR/2001/REC-SVG-20010904/DTD/svg10.dtd">
<svg version="1.0" xmlns="http://www.w3.org/2000/svg"
 width="1024.000000pt" height="768.000000pt" viewBox="0 0 1024.000000 768.000000"
 preserveAspectRatio="xMidYMid meet">

<g transform="translate(0.000000,768.000000) scale(0.100000,-0.100000)"
fill="#000000" stroke="none">
<path d="M5810 7299 c0 -170 -15 -250 -63 -345 -94 -185 -266 -369 -622 -664
-422 -350 -555 -516 -587 -737 -28 -198 81 -425 324 -672 88 -89 281 -257 358
-311 l35 -25 -33 40 c-132 160 -229 299 -298 430 -179 338 -163 593 53 837 73
82 114 119 328 292 226 183 393 354 463 471 95 162 133 339 113 529 -10 89
-53 281 -66 295 -3 2 -5 -61 -5 -140z"/>
<path d="M6255 6301 c-547 -221 -874 -438 -978 -651 -85 -173 -57 -293 137
-589 127 -194 168 -283 174 -381 5 -94 -13 -159 -65 -228 -20 -26 -41 -54 -47
-62 -33 -44 141 89 232 177 106 104 160 198 169 295 9 96 -24 172 -154 348
-125 170 -165 278 -142 388 28 138 136 277 338 437 100 79 267 193 389 264 61
37 82 52 70 51 -2 0 -57 -22 -123 -49z"/>
<path d="M6711 4564 c-60 -13 -219 -80 -210 -88 2 -2 24 0 49 4 77 15 164 11
235 -11 212 -65 246 -310 77 -556 -94 -135 -234 -255 -414 -353 -40 -22 -67
-40 -60 -40 25 0 214 51 279 76 351 132 551 369 530 627 -15 175 -141 314
-317 347 -66 13 -89 12 -169 -6z"/>
<path d="M4350 4485 c-488 -89 -722 -184 -666 -271 69 -104 523 -177 1101
-176 527 0 941 53 1275 162 92 29 274 110 266 117 -1 2 -34 -3 -72 -11 -367
-77 -1375 -142 -1799 -117 -258 16 -385 47 -385 97 0 39 147 116 360 188 74
25 128 45 120 45 -8 0 -98 -16 -200 -34z"/>
<path d="M4296 3867 c-370 -198 -172 -332 544 -368 416 -21 980 27 1248 105
80 23 100 32 91 39 -2 2 -48 34 -102 71 l-99 67 -211 -35 c-769 -128 -1324
-120 -1408 18 -24 39 -24 57 1 106 11 22 19 40 18 40 -2 0 -39 -19 -82 -43z"/>
<path d="M4404 3255 c-73 -35 -134 -92 -134 -123 0 -173 841 -283 1420 -186
145 25 361 92 360 113 -1 3 -57 40 -127 82 -117 71 -128 76 -163 68 -97 -22
-404 -59 -565 -69 -274 -16 -552 9 -650 57 -48 24 -76 54 -69 75 7 22 13 24
-72 -17z"/>
<path d="M4048 2883 c7 -3 16 -2 19 1 4 3 -2 6 -13 5 -11 0 -14 -3 -6 -6z"/>
<path d="M3895 2869 c-385 -54 -615 -121 -654 -191 -35 -61 32 -108 222 -159
419 -110 1109 -168 1862 -156 530 9 874 42 1160 113 301 75 435 167 435 298 0
25 -4 48 -10 51 -5 3 -10 -2 -10 -12 0 -24 -63 -85 -115 -111 -150 -74 -496
-137 -960 -172 -228 -18 -960 -24 -1240 -11 -594 28 -965 93 -991 174 -15 47
91 100 316 157 113 28 107 36 -15 19z"/>
<path d="M7176 2593 c-161 -173 -681 -310 -1446 -380 -279 -25 -1026 -26
-1250 0 -227 26 -403 64 -523 112 -16 7 -18 3 -15 -21 18 -158 965 -260 1883
-203 706 44 1213 187 1353 383 33 45 56 111 50 141 -2 17 -11 11 -52 -32z"/>
<path d="M2850 1740 l0 -80 176 0 175 0 -4 -557 c-2 -422 -6 -568 -16 -598
-18 -55 -79 -111 -143 -130 -90 -26 -257 -15 -363 25 l-25 10 0 -99 0 -99 73
-13 c39 -7 128 -13 197 -13 162 0 215 15 333 92 51 34 100 104 128 182 l24 65
3 648 3 647 -280 0 -281 0 0 -80z"/>
<path d="M7378 1460 c20 -8 22 -16 22 -75 0 -86 18 -84 22 2 3 62 5 68 28 74
17 5 5 7 -35 7 -45 1 -55 -1 -37 -8z"/>
<path d="M7500 1395 c0 -43 4 -75 10 -75 6 0 10 27 10 62 0 71 8 70 24 -4 15
-66 32 -72 46 -16 21 82 29 88 29 21 1 -35 5 -63 11 -63 6 0 10 32 10 75 0 68
-2 75 -20 75 -14 0 -22 -11 -29 -37 -6 -21 -11 -44 -11 -50 0 -31 -17 -9 -29
37 -10 38 -17 50 -32 50 -17 0 -19 -8 -19 -75z"/>
<path d="M4120 1440 c-98 -9 -201 -26 -247 -41 l-33 -11 0 -99 c0 -54 2 -99 4
-99 2 0 23 7 47 16 153 56 354 79 483 54 119 -22 185 -95 186 -205 l0 -51
-167 -13 c-290 -22 -455 -68 -552 -156 -23 -21 -55 -66 -73 -104 -30 -61 -32
-73 -32 -171 -1 -94 2 -111 27 -165 118 -254 458 -299 740 -99 26 19 49 34 52
34 3 0 5 -29 5 -65 l0 -65 101 0 100 0 -3 473 c-3 470 -3 472 -27 532 -43 110
-156 197 -291 223 -81 16 -223 21 -320 12z m440 -771 c0 -193 8 -174 -91 -233
-97 -58 -163 -78 -264 -79 -136 -1 -207 29 -246 105 -23 46 -28 135 -10 191
20 60 103 120 201 147 55 15 251 37 343 39 l67 1 0 -171z"/>
<path d="M6725 1438 c-55 -5 -138 -16 -185 -26 l-85 -17 -3 -102 -3 -102 33
10 c168 53 209 61 326 66 142 7 218 -6 277 -45 52 -35 85 -100 85 -167 l0 -51
-167 -13 c-349 -25 -526 -90 -609 -223 -62 -98 -70 -263 -19 -377 36 -79 121
-160 202 -192 77 -31 249 -33 333 -5 73 25 144 61 203 102 26 19 49 34 52 34
3 0 5 -29 5 -65 l0 -65 100 0 100 0 0 438 c0 534 -6 572 -96 672 -68 75 -162
114 -314 130 -105 11 -95 11 -235 -2z m445 -771 l0 -172 -51 -34 c-158 -103
-304 -131 -451 -84 -86 27 -138 122 -122 226 20 130 126 194 365 222 63 7 147
13 187 14 l72 1 0 -173z"/>
<path d="M5020 1409 c0 -10 48 -131 265 -669 59 -146 132 -327 162 -403 l55
-138 100 3 100 3 73 180 c177 440 311 770 361 892 30 72 54 134 54 138 0 3
-46 4 -102 3 l-102 -3 -184 -475 c-100 -261 -186 -478 -191 -483 -7 -7 -63
133 -315 781 l-71 182 -102 0 c-66 0 -103 -4 -103 -11z"/>
</g>
</svg>
