<?xml version="1.0" encoding="utf-8"?>
<!-- Generator: Adobe Illustrator 24.1.1, SVG Export Plug-In . SVG Version: 6.00 Build 0)  -->
<svg version="1.1" id="Layer_1" xmlns="http://www.w3.org/2000/svg" xmlns:xlink="http://www.w3.org/1999/xlink" x="0px" y="0px"
	 viewBox="0 0 512 512" width="100%" style="enable-background:new 0 0 512 512;" xml:space="preserve">
<style type="text/css">
	.st0{fill:#333333;}
</style>
<g id="XMLID_2_">
	<path id="XMLID_4_" class="st0" d="M197.4,178.9c-39.3,0-53.5,37.8-84.9,51.1C80.2,244.2,38.5,243.4,0,215.1
		c0,57.4,75.5,118,151,118c56.6,0,91.2-26.7,104.6-59c13.4,32.2,48,59,104.6,59c75.5,0,151.8-60.6,151.8-118
		c-37.8,28.3-80.2,29.1-112.5,14.9c-32.2-14.2-46.4-51.1-85.7-51.1c-27.5,0-48,9.4-58.2,29.9C245.4,187.6,224.9,178.9,197.4,178.9z"
		/>
</g>
</svg>
